<?xml version="1.0" encoding="UTF-8"?>
<svg version="1.1" xmlns="http://www.w3.org/2000/svg" width="512" height="512">
<path d="M0 0 C0.69460327 -0.01460266 1.38920654 -0.02920532 2.1048584 -0.04425049 C8.57242224 -0.17122773 15.04125835 -0.2392811 21.5098114 -0.29209328 C25.84731774 -0.32761228 30.18293208 -0.38027263 34.51953125 -0.47753906 C69.78243015 -1.24974642 69.78243015 -1.24974642 81.12597656 6.97998047 C95.04721928 16.7689448 117.77118841 19.54710452 134.36328125 18.25634766 C136.20986328 18.13453125 136.20986328 18.13453125 138.09375 18.01025391 C151.18797972 16.92733074 164.27778732 13.7014373 176.14453125 7.99853516 C178.84246183 6.77105045 180.14690382 6.25119581 183.15234375 6.32275391 C193.73213884 10.79019388 199.90141995 20.45831016 204.23828125 30.63134766 C206.51229946 36.33898277 207.48852821 40.7772672 207.51045227 46.95188904 C207.51412896 47.62400407 207.51780565 48.29611911 207.52159375 48.98860127 C207.53260295 51.23988584 207.5364698 53.49112421 207.5402832 55.74243164 C207.54655021 57.35737758 207.55319722 58.97232208 207.56019592 60.58726501 C207.58121991 65.89231363 207.59160042 71.19736247 207.6015625 76.50244141 C207.60561142 78.33225075 207.60972839 80.16205994 207.61391258 81.99186897 C207.63296482 90.59412179 207.64719278 99.19636605 207.65552455 107.7986359 C207.66528132 117.70728567 207.69155984 127.61571112 207.73202544 137.52428192 C207.7622691 145.19499246 207.77700144 152.86563904 207.78030556 160.53640801 C207.78264769 165.11157157 207.79149761 169.68649552 207.81676674 174.26159477 C207.84019566 178.57333957 207.84422175 182.88468954 207.83400536 187.1964817 C207.83351338 188.7697316 207.83973283 190.34300191 207.8535614 191.9161911 C207.98775078 208.10216256 204.47490194 221.98346862 193.11328125 234.00634766 C183.97662179 242.68310815 172.36540042 248.367979 159.60893059 248.38777542 C158.20907333 248.39353714 158.20907333 248.39353714 156.78093612 248.39941525 C155.76412045 248.39854877 154.74730478 248.39768229 153.69967651 248.39678955 C152.61285713 248.39976067 151.52603775 248.4027318 150.40628445 248.40579295 C146.75766494 248.41447752 143.10907825 248.41598801 139.46044922 248.41748047 C136.84705027 248.42210884 134.233652 248.42713353 131.62025452 248.43252563 C124.51466843 248.44609528 117.409088 248.45213172 110.30349112 248.45653629 C105.86386718 248.45930139 101.42424542 248.46353926 96.98462296 248.46804047 C84.68479232 248.48023202 72.38496342 248.49053112 60.08512688 248.49391556 C58.90476275 248.49424491 58.90476275 248.49424491 57.70055289 248.49458091 C56.91179233 248.49479919 56.12303177 248.49501747 55.31036937 248.49524236 C53.71212125 248.49568582 52.11387312 248.49613238 50.515625 248.49658203 C49.32645317 248.49691418 49.32645317 248.49691418 48.11325766 248.49725303 C35.27522569 248.50119874 22.43725056 248.51864633 9.59924053 248.54194155 C-3.59160789 248.56568313 -16.78242783 248.57811871 -29.97329795 248.57928348 C-37.37529781 248.58019873 -44.77722363 248.58591319 -52.17920303 248.60410309 C-59.14444982 248.62115975 -66.10955417 248.62273572 -73.07481575 248.61396408 C-75.62771925 248.61319407 -78.18063033 248.61753168 -80.73351479 248.62742233 C-84.22624689 248.64015785 -87.71848308 248.63425576 -91.21121216 248.62384033 C-92.2146435 248.63189674 -93.21807484 248.63995314 -94.25191319 248.64825368 C-108.73120827 248.54769741 -120.91999124 243.5240829 -131.3828125 233.56884766 C-140.28900413 224.43112591 -145.73908739 213.30373167 -145.78388977 200.44018555 C-145.78756646 199.75511429 -145.79124315 199.07004303 -145.79503125 198.36421204 C-145.80604206 196.06913503 -145.80990755 193.77410334 -145.8137207 191.47900391 C-145.81998752 189.8328792 -145.82663452 188.18675591 -145.83363342 186.54063416 C-145.8546573 181.13338197 -145.865037 175.72612958 -145.875 170.31884766 C-145.87904874 168.45434555 -145.8831657 166.5898436 -145.88735008 164.7253418 C-145.90640124 155.96130839 -145.92063017 147.19728339 -145.92896205 138.43323326 C-145.93872246 128.33440375 -145.96501098 118.23579413 -146.00546294 108.13704205 C-146.03569003 100.32112543 -146.05043733 92.50527158 -146.05374306 84.68929768 C-146.05608681 80.02641857 -146.06495833 75.36377437 -146.09020424 70.70095825 C-146.11360439 66.30796184 -146.11767058 61.915353 -146.10744286 57.52231026 C-146.10695021 55.91800199 -146.11318984 54.31367388 -146.1269989 52.70942497 C-146.26265224 36.00271818 -142.23662083 23.86764463 -130.38671875 11.75634766 C-128.18706032 9.60948103 -126.2121383 7.97329403 -123.63671875 6.25634766 C-118.953493 6.59369866 -115.15506479 8.19551801 -110.88671875 10.06884766 C-99.52152386 14.83554495 -86.97124729 17.7554531 -74.63671875 18.25634766 C-73.80269531 18.30791016 -72.96867187 18.35947266 -72.109375 18.41259766 C-49.08320067 19.18767225 -27.57302338 12.26202834 -7.63671875 1.25634766 C-5.75298336 -0.62738773 -2.51135254 0.04963583 0 0 Z " fill="#FFFFFF" transform="translate(167.63671875,230.74365234375)"/>
<path d="M0 0 C19.91320781 16.65930491 32.75418132 38.00238467 37.24072266 63.61572266 C37.38058594 63.06335938 37.52044922 62.51099609 37.66455078 61.94189453 C44.74769472 34.45200791 57.1933772 11.9897496 81.24072266 -4.38427734 C82.05154297 -4.93857422 82.86236328 -5.49287109 83.69775391 -6.06396484 C105.88219314 -20.26494916 133.56426629 -23.62152658 159.02099609 -18.22265625 C183.92598981 -12.44411056 206.11545353 2.53909421 220.07666016 24.08447266 C234.50385409 47.2510919 239.84482555 73.6514789 234.24072266 100.61572266 C227.88979139 126.09658453 213.28077616 149.57739385 190.61083984 163.57421875 C166.95310207 177.52772194 140.10958447 182.64063816 113.00244141 176.65087891 C86.6716339 169.40512191 64.10907422 154.03276896 50.11962891 130.12353516 C43.9895055 118.67893887 39.95665744 107.30133109 37.24072266 94.61572266 C37.03318359 95.65728516 36.82564453 96.69884766 36.61181641 97.77197266 C31.15121467 123.73426314 17.33515942 146.25736839 -4.64599609 161.63525391 C-28.32709418 176.86921983 -55.90720155 182.8268317 -83.75927734 177.05322266 C-109.12886671 171.28752839 -132.06881817 155.29438319 -146.2578125 133.51147461 C-160.47618936 110.68362146 -164.78433967 83.77033401 -159.67651367 57.27514648 C-153.33128024 30.36683594 -136.7276005 8.61223338 -113.79443359 -6.31396484 C-79.16597929 -27.51877392 -32.0659585 -25.23091655 0 0 Z M-93.50537109 53.67822266 C-100.28693888 63.14874126 -103.07650623 73.01867663 -101.75927734 84.61572266 C-99.31350974 97.2063606 -93.00121532 106.05244538 -82.75927734 113.61572266 C-73.27000076 119.64066017 -62.81912277 120.82296487 -51.94677734 118.55322266 C-42.06354383 115.88275299 -33.47199321 110.18479645 -27.75927734 101.61572266 C-21.8991046 90.62789876 -19.58770404 79.65567674 -22.88427734 67.30322266 C-26.16139223 57.99011943 -32.89897911 48.85092839 -41.61083984 44.04150391 C-59.64005054 35.74045571 -80.13311904 37.88281084 -93.50537109 53.67822266 Z M103.77587891 55.54931641 C97.44248753 64.07441573 95.22032321 74.1039887 96.24072266 84.61572266 C98.17037117 95.00987977 103.73325595 105.18401492 112.24072266 111.61572266 C123.25577086 118.19436524 133.34827884 121.20896575 146.05322266 118.55322266 C155.93080986 115.88427864 164.53668216 110.18663768 170.24072266 101.61572266 C175.88838465 90.89398933 178.23000117 80.29433669 175.48681641 68.32666016 C173.71478177 63.28157331 171.49511341 58.88711052 168.24072266 54.61572266 C167.68384766 53.79072266 167.12697266 52.96572266 166.55322266 52.11572266 C159.35258869 44.3312535 149.58679134 39.57801216 139.03344727 39.14306641 C124.15850015 38.96069158 113.31728376 44.0952837 103.77587891 55.54931641 Z " fill="#FFFFFF" transform="translate(160.75927734375,53.38427734375)"/>
<path d="M0 0 C4.85869586 3.00508934 9.21966303 7.8308641 11.02734375 13.25390625 C11.13032607 15.5645645 11.17113347 17.87812541 11.1812439 20.1910553 C11.18781728 21.25624922 11.18781728 21.25624922 11.19452345 22.34296221 C11.20790561 24.72872553 11.21408907 27.11445192 11.22021484 29.50024414 C11.22811646 31.20857917 11.23638545 32.91691253 11.24499512 34.62524414 C11.27121483 40.24233405 11.28652565 45.8594314 11.30078125 51.4765625 C11.30614151 53.41137637 11.31151902 55.34619018 11.3169136 57.28100395 C11.33854488 65.33188894 11.35727984 73.38277193 11.368536 81.43367863 C11.38476274 92.96347606 11.41790674 104.49293581 11.47493684 116.02260596 C11.51368303 124.13315903 11.5331744 132.24362198 11.53845656 140.35426515 C11.54210444 145.19600195 11.55406527 150.03737858 11.5865593 154.87901497 C11.61672123 159.43866161 11.62292292 163.99773174 11.61117554 168.55745697 C11.61095546 170.22550294 11.61920572 171.89357628 11.63682938 173.56152916 C11.72644846 182.5363278 11.75500813 190.78640535 6.02734375 198.25390625 C1.10176494 202.80222845 -3.56492173 204.88022419 -10.22265625 205.5390625 C-18.77306481 204.65244343 -25.80799386 200.29666292 -33.03515625 195.94140625 C-35.17436069 194.67297725 -37.31368699 193.40475374 -39.453125 192.13671875 C-40.53770996 191.48993164 -41.62229492 190.84314453 -42.73974609 190.17675781 C-47.75763865 187.19224477 -52.80247606 184.25447192 -57.84765625 181.31640625 C-58.82331543 180.74672119 -59.79897461 180.17703613 -60.80419922 179.59008789 C-66.12812941 176.48337614 -71.46109248 173.39308711 -76.8046875 170.3203125 C-78.52099365 169.33309204 -78.52099365 169.33309204 -80.27197266 168.32592773 C-82.44898052 167.07490902 -84.62696002 165.82557878 -86.80615234 164.57836914 C-88.77905935 163.44488626 -90.73937594 162.28906897 -92.68345642 161.10682678 C-95.9134535 159.18592659 -95.9134535 159.18592659 -99.35270691 157.93417358 C-103.22024686 156.20370257 -106.3756325 154.66999856 -108.97265625 151.25390625 C-111.4951477 144.29289069 -110.80165329 136.38384265 -110.69921875 129.09765625 C-110.70798381 126.90863221 -110.72060719 124.71962054 -110.73690796 122.53063965 C-110.75604071 117.95002385 -110.72834527 113.37271099 -110.66748047 108.79248047 C-110.59338679 102.93246411 -110.63605492 97.08018392 -110.7139225 91.22045135 C-110.76099861 86.70219043 -110.74590793 82.18575181 -110.7122612 77.66743469 C-110.70361524 75.50815403 -110.7141414 73.34870559 -110.74449539 71.18962097 C-110.92414045 54.82086398 -110.92414045 54.82086398 -107.71306038 50.59704971 C-104.23753515 47.51024565 -100.28312136 45.93691701 -95.97265625 44.25390625 C-93.91661611 43.09566862 -91.87565221 41.90974287 -89.859375 40.68359375 C-87.79397413 39.49694629 -85.72753744 38.3121002 -83.66015625 37.12890625 C-81.37210789 35.8142993 -79.08430111 34.49928211 -76.796875 33.18359375 C-75.08443604 32.19891113 -75.08443604 32.19891113 -73.33740234 31.19433594 C-68.2041949 28.23404478 -63.08818737 25.24460307 -57.97265625 22.25390625 C-55.02008419 20.53151081 -52.06717138 18.8097005 -49.11425781 17.08789062 C-46.90684137 15.79925895 -44.70041217 14.50904641 -42.49511719 13.21679688 C-39.52517934 11.47680057 -36.55194559 9.74255368 -33.57666016 8.01171875 C-31.8900027 7.02858941 -30.20667373 6.03975671 -28.5234375 5.05078125 C-27.49347656 4.45265625 -26.46351563 3.85453125 -25.40234375 3.23828125 C-24.49726074 2.70944336 -23.59217773 2.18060547 -22.65966797 1.63574219 C-15.23232805 -2.18387838 -7.80108454 -3.19767228 0 0 Z " fill="#FFFFFF" transform="translate(500.97265625,253.74609375)"/>
</svg>
